<svg width="48" height="32" viewBox="0 0 48 32" fill="none" xmlns="http://www.w3.org/2000/svg">
<mask id="mask0_199_21864" style="mask-type:alpha" maskUnits="userSpaceOnUse" x="0" y="0" width="48" height="32">
<rect width="48" height="32" fill="#016FD0"/>
</mask>
<g mask="url(#mask0_199_21864)">
<rect x="0.5" y="0.5" width="47" height="31" rx="3.5" fill="white" stroke="#E8ECEF"/>
<path d="M9.90723 24.6423V17.439H17.5351L18.3535 18.5057L19.1989 17.439H46.8862V24.1455C46.8862 24.1455 46.1622 24.6351 45.3247 24.6423H29.9937L29.071 23.5068V24.6423H26.0474V22.704C26.0474 22.704 25.6344 22.9745 24.7414 22.9745H23.7122V24.6423H19.1342L18.317 23.5527L17.4872 24.6423H9.90723Z" fill="#016FD0"/>
<path d="M1 12.0097L2.72012 8H5.69488L6.67106 10.2461V8H10.369L10.9501 9.6234L11.5135 8H28.1132V8.81614C28.1132 8.81614 28.9858 8 30.42 8L35.806 8.01882L36.7653 10.2355V8H39.8599L40.7116 9.27331V8H43.8346V15.2033H40.7116L39.8954 13.9259V15.2033H35.3487L34.8915 14.0678H33.6692L33.2194 15.2033H30.1361C28.902 15.2033 28.1132 14.4039 28.1132 14.4039V15.2033H23.4642L22.5415 14.0678V15.2033H5.25418L4.79727 14.0678H3.57887L3.12519 15.2033H1V12.0097Z" fill="#016FD0"/>
<path d="M3.32787 8.8877L1.00781 14.2819H2.51829L2.94637 13.2018H5.435L5.86086 14.2819H7.40461L5.08677 8.8877H3.32787ZM4.18625 10.1431L4.94482 12.0307H3.42547L4.18625 10.1431Z" fill="white"/>
<path d="M7.56396 14.281V8.88672L9.71044 8.89469L10.9589 12.3726L12.1775 8.88672H14.3068V14.281H12.9582V10.3063L11.5287 14.281H10.346L8.91253 10.3063V14.281H7.56396Z" fill="white"/>
<path d="M15.231 14.281V8.88672H19.6316V10.0933H16.5937V11.016H19.5606V12.1517H16.5937V13.1099H19.6316V14.281H15.231Z" fill="white"/>
<path d="M20.4111 8.8877V14.282H21.7597V12.3656H22.3275L23.9445 14.282H25.5925L23.8181 12.2946C24.5463 12.2332 25.2975 11.6081 25.2975 10.6377C25.2975 9.50259 24.4065 8.8877 23.4122 8.8877H20.4111ZM21.7597 10.0943H23.3013C23.671 10.0943 23.9401 10.3836 23.9401 10.6621C23.9401 11.0205 23.5915 11.23 23.3212 11.23H21.7597V10.0943Z" fill="white"/>
<path d="M27.2266 14.281H25.8496V8.88672H27.2266V14.281Z" fill="white"/>
<path d="M30.4912 14.281H30.194C28.7559 14.281 27.8828 13.148 27.8828 11.606C27.8828 10.026 28.7462 8.88672 30.5622 8.88672H32.0528V10.1643H30.5077C29.7705 10.1643 29.2491 10.7396 29.2491 11.6194C29.2491 12.664 29.8453 13.1028 30.7042 13.1028H31.0591L30.4912 14.281Z" fill="white"/>
<path d="M33.427 8.8877L31.1069 14.2819H32.6174L33.0455 13.2018H35.5341L35.96 14.2819H37.5037L35.1859 8.8877H33.427ZM34.2854 10.1431L35.0439 12.0307H33.5246L34.2854 10.1431Z" fill="white"/>
<path d="M37.6597 14.281V8.88672H39.3742L41.5634 12.2759V8.88672H42.912V14.281H41.2529L39.0082 10.8031V14.281H37.6597Z" fill="white"/>
<path d="M10.8301 23.7205V18.3262H15.2307V19.5328H12.1928V20.4555H15.1597V21.5911H12.1928V22.5493H15.2307V23.7205H10.8301Z" fill="white"/>
<path d="M32.3921 23.7205V18.3262H36.7927V19.5328H33.7549V20.4555H36.7075V21.5911H33.7549V22.5493H36.7927V23.7205H32.3921Z" fill="white"/>
<path d="M15.4021 23.7204L17.5447 21.0566L15.3511 18.3262H17.0501L18.3565 20.0141L19.6674 18.3262H21.2998L19.135 21.0233L21.2816 23.7204H19.5829L18.3144 22.0591L17.0767 23.7204H15.4021Z" fill="white"/>
<path d="M21.4404 18.3267V23.721H22.8245V22.0175H24.244C25.4452 22.0175 26.3556 21.3803 26.3556 20.141C26.3556 19.1144 25.6416 18.3267 24.4193 18.3267H21.4404ZM22.8245 19.5466H24.3195C24.7075 19.5466 24.9849 19.7844 24.9849 20.1676C24.9849 20.5277 24.7089 20.7887 24.315 20.7887H22.8245V19.5466Z" fill="white"/>
<path d="M26.9419 18.3262V23.7205H28.2905V21.8041H28.8583L30.4753 23.7205H32.1233L30.3488 21.7331C31.0771 21.6716 31.8283 21.0466 31.8283 20.0762C31.8283 18.9411 30.9373 18.3262 29.9429 18.3262H26.9419ZM28.2905 19.5328H29.832C30.2018 19.5328 30.4708 19.8221 30.4708 20.1006C30.4708 20.459 30.1223 20.6684 29.852 20.6684H28.2905V19.5328Z" fill="white"/>
<path d="M37.4183 23.7205V22.5493H40.1172C40.5166 22.5493 40.6895 22.3335 40.6895 22.0969C40.6895 21.8701 40.5171 21.6408 40.1172 21.6408H38.8976C37.8375 21.6408 37.2471 20.9949 37.2471 20.0252C37.2471 19.1603 37.7877 18.3262 39.3631 18.3262H41.9893L41.4214 19.5399H39.1502C38.716 19.5399 38.5823 19.7677 38.5823 19.9853C38.5823 20.2089 38.7475 20.4555 39.0792 20.4555H40.3568C41.5386 20.4555 42.0514 21.1259 42.0514 22.0037C42.0514 22.9475 41.4799 23.7205 40.2924 23.7205H37.4183Z" fill="white"/>
<path d="M42.367 23.7205V22.5493H45.066C45.4653 22.5493 45.6382 22.3335 45.6382 22.0969C45.6382 21.8701 45.4658 21.6408 45.066 21.6408H43.8463C42.7862 21.6408 42.1958 20.9949 42.1958 20.0252C42.1958 19.1603 42.7365 18.3262 44.3118 18.3262H46.8844L46.3702 19.5399H44.0989C43.6647 19.5399 43.5311 19.7677 43.5311 19.9853C43.5311 20.2089 43.6962 20.4555 44.0279 20.4555H45.3055C46.4873 20.4555 47.0001 21.1259 47.0001 22.0037C47.0001 22.9475 46.4287 23.7205 45.2412 23.7205H42.367Z" fill="white"/>
</g>
</svg>
