<svg width="48" height="32" viewBox="0 0 48 32" fill="none" xmlns="http://www.w3.org/2000/svg">
<rect x="0.5" y="0.5" width="47" height="31" rx="3.5" fill="white" stroke="#E8ECEF"/>
<path fill-rule="evenodd" clip-rule="evenodd" d="M12.2718 11.4677C12.8718 11.5183 13.4719 11.164 13.8469 10.7147C14.2157 10.2528 14.4595 9.63274 14.397 9C13.8657 9.02531 13.2094 9.35433 12.8343 9.81623C12.4905 10.2149 12.1967 10.8602 12.2718 11.4677ZM19.4101 19.6161V9.75284H23.0667C24.9545 9.75284 26.2734 11.0688 26.2734 12.9921C26.2734 14.9154 24.9295 16.244 23.0167 16.244H20.9227V19.6161H19.4101ZM14.3908 11.5876C13.8622 11.5568 13.3798 11.7485 12.9902 11.9033C12.7394 12.003 12.5271 12.0874 12.3656 12.0874C12.1843 12.0874 11.9632 11.9985 11.715 11.8987C11.3897 11.7679 11.0179 11.6184 10.6279 11.6255C9.73403 11.6382 8.90269 12.1506 8.44639 12.9668C7.50878 14.5991 8.20261 17.0158 9.10896 18.3444C9.55276 19.0024 10.0841 19.7236 10.7842 19.6983C11.0921 19.6866 11.3137 19.5914 11.543 19.4929C11.807 19.3796 12.0812 19.2618 12.5094 19.2618C12.9227 19.2618 13.1849 19.3765 13.4366 19.4866C13.676 19.5913 13.9058 19.6918 14.2471 19.6857C14.9721 19.673 15.4284 19.0277 15.8722 18.3697C16.3512 17.6636 16.5616 16.9744 16.5936 16.8698L16.5973 16.8577C16.5966 16.8569 16.5906 16.8541 16.5802 16.8493C16.4201 16.7751 15.1964 16.2081 15.1847 14.6876C15.1729 13.4114 16.1553 12.7648 16.3099 12.663C16.3193 12.6568 16.3257 12.6526 16.3285 12.6505C15.7035 11.7141 14.7284 11.6129 14.3908 11.5876ZM29.0365 19.692C29.9866 19.692 30.868 19.2049 31.268 18.433H31.2993V19.6161H32.6994V14.7066C32.6994 13.2831 31.5743 12.3658 29.8428 12.3658C28.2364 12.3658 27.0488 13.2958 27.005 14.5738H28.3677C28.4802 13.9664 29.0365 13.5678 29.7991 13.5678C30.7242 13.5678 31.243 14.0044 31.243 14.8079V15.3519L29.3553 15.4658C27.5988 15.5734 26.6487 16.3009 26.6487 17.5663C26.6487 18.8443 27.6301 19.692 29.0365 19.692ZM29.4425 18.5218C28.6362 18.5218 28.1236 18.1295 28.1236 17.5284C28.1236 16.9084 28.6174 16.5477 29.5613 16.4908L31.2427 16.3832V16.94C31.2427 17.8638 30.4677 18.5218 29.4425 18.5218ZM37.3432 20.002C36.7369 21.7292 36.0431 22.2986 34.5679 22.2986C34.4554 22.2986 34.0804 22.2859 33.9929 22.2606V21.0775C34.0866 21.0902 34.3179 21.1028 34.4367 21.1028C35.1055 21.1028 35.4805 20.8181 35.7118 20.0779L35.8493 19.6414L33.2865 12.4607H34.868L36.6494 18.2875H36.6807L38.4621 12.4607H39.9998L37.3432 20.002ZM20.9229 11.0435H22.6668C23.9795 11.0435 24.7295 11.7522 24.7295 12.9987C24.7295 14.2452 23.9795 14.9601 22.6606 14.9601H20.9229V11.0435Z" fill="black"/>
</svg>
