<svg width="48" height="32" viewBox="0 0 48 32" fill="none" xmlns="http://www.w3.org/2000/svg">
<rect x="0.5" y="0.5" width="47" height="31" rx="3.5" fill="white" stroke="#E8ECEF"/>
<path fill-rule="evenodd" clip-rule="evenodd" d="M25.566 10.0329L23.0462 10.5737V8.53077L25.566 8V10.0329ZM15.3263 9.16151L12.8768 9.6822L12.8668 17.7029C12.8668 19.1849 13.9811 20.2763 15.4669 20.2763C16.2901 20.2763 16.8924 20.1261 17.2237 19.9459V17.9132C16.9025 18.0433 15.3163 18.504 15.3163 17.022V13.4672H17.2237V11.3344H15.3163L15.3263 9.16151ZM9.3932 13.3371C8.86113 13.3371 8.53988 13.4873 8.53988 13.8778C8.53988 14.3042 9.09276 14.4918 9.77866 14.7245C10.8969 15.1038 12.3686 15.6031 12.3748 17.4526C12.3748 19.245 10.9392 20.2764 8.85109 20.2764C7.98773 20.2764 7.04406 20.1061 6.11043 19.7056V17.3224C6.95371 17.783 8.01785 18.1235 8.85109 18.1235C9.41328 18.1235 9.81484 17.9733 9.81484 17.5127C9.81484 17.0404 9.21552 16.8245 8.49196 16.5639C7.39004 16.1669 6 15.6662 6 13.998C6 12.2256 7.35527 11.1642 9.3932 11.1642C10.2264 11.1642 11.0496 11.2944 11.8829 11.6248V13.978C11.1199 13.5674 10.1562 13.3371 9.3932 13.3371ZM20.3459 12.0754L20.1853 11.3344H18.0168V20.0961H20.5266V14.1582C21.1189 13.3872 22.1228 13.5274 22.434 13.6375V11.3344C22.1128 11.2143 20.9382 10.994 20.3459 12.0754ZM23.0462 11.3344H25.566V20.0961H23.0462V11.3344ZM42.1404 15.7503C42.1404 13.1869 40.8956 11.1642 38.5163 11.1642C36.127 11.1642 34.6814 13.1869 34.6814 15.7303C34.6814 18.7443 36.388 20.2663 38.8376 20.2663C40.0322 20.2663 40.9357 19.996 41.6184 19.6155V17.6128C40.9357 17.9532 40.1527 18.1635 39.1588 18.1635C38.185 18.1635 37.3217 17.8231 37.2112 16.6415H42.1203C42.1203 16.5863 42.1239 16.4609 42.1281 16.3165L42.1281 16.3156C42.1338 16.1195 42.1404 15.8885 42.1404 15.7503ZM37.1814 14.7992C37.1814 13.6676 37.8741 13.1969 38.5066 13.1969C39.1189 13.1969 39.7715 13.6676 39.7715 14.7992H37.1814ZM28.8385 11.9452C29.1899 11.6248 29.8223 11.1642 30.8061 11.1642C32.563 11.1642 34.2194 12.7463 34.2295 15.6502C34.2295 18.8244 32.5931 20.2663 30.7961 20.2663C29.9127 20.2663 29.3806 19.8959 29.0192 19.6355L29.0092 22.4693L26.4994 23V11.3244H28.708L28.8385 11.9452ZM29.019 17.5932C29.2599 17.8536 29.6113 18.0639 30.2036 18.0639C31.1272 18.0639 31.7496 17.0625 31.7496 15.7205C31.7496 14.4086 31.1172 13.3872 30.2036 13.3872C29.6314 13.3872 29.27 13.5874 29.009 13.8779L29.019 17.5932Z" fill="#6461FC"/>
</svg>
