<svg width="48" height="32" viewBox="0 0 48 32" fill="none" xmlns="http://www.w3.org/2000/svg">
<rect x="0.5" y="0.5" width="47" height="31" rx="3.5" fill="white" stroke="#E8ECEF"/>
<path d="M20.8458 21.987H17.5098L19.5963 9.23096H22.9321L20.8458 21.987Z" fill="#00579F"/>
<path d="M32.9377 9.54307C32.2797 9.28497 31.2361 9 29.9456 9C26.6512 9 24.3313 10.7369 24.3171 13.2201C24.2897 15.0523 25.9781 16.0699 27.2408 16.6808C28.5315 17.305 28.9702 17.7124 28.9702 18.2689C28.9571 19.1234 27.9273 19.5173 26.9668 19.5173C25.6349 19.5173 24.9213 19.3142 23.8368 18.8388L23.3975 18.635L22.9307 21.4984C23.7131 21.8509 25.1546 22.1636 26.6512 22.1773C30.1516 22.1773 32.4304 20.4673 32.4574 17.821C32.4707 16.3689 31.5792 15.2563 29.6572 14.347C28.4904 13.7634 27.7759 13.3698 27.7759 12.7727C27.7895 12.2298 28.3802 11.6737 29.6973 11.6737C30.7818 11.6465 31.5787 11.9042 32.1823 12.1621L32.484 12.2976L32.9377 9.54307Z" fill="#00579F"/>
<path d="M37.3732 17.468C37.648 16.7351 38.7051 13.8989 38.7051 13.8989C38.6913 13.9262 38.9793 13.1526 39.144 12.6777L39.3772 13.7768C39.3772 13.7768 40.0089 16.8302 40.1461 17.468C39.6247 17.468 38.0322 17.468 37.3732 17.468ZM41.4911 9.23096H38.9107C38.115 9.23096 37.5104 9.46146 37.1671 10.2893L32.2119 21.9868H35.7123C35.7123 21.9868 36.2886 20.4124 36.4124 20.0733C36.7964 20.0733 40.2016 20.0733 40.6956 20.0733C40.7913 20.5211 41.0936 21.9868 41.0936 21.9868H44.1824L41.4911 9.23096Z" fill="#00579F"/>
<path d="M14.7231 9.23096L11.4561 17.9293L11.0991 16.1652C10.495 14.1296 8.60075 11.918 6.48682 10.8183L9.47931 21.9734H13.007L18.2506 9.23096H14.7231Z" fill="#00579F"/>
<path d="M8.4222 9.23096H3.05491L3 9.48873C7.18682 10.5474 9.95967 13.0993 11.0989 16.1665L9.93213 10.3033C9.74003 9.48855 9.14971 9.25783 8.4222 9.23096Z" fill="#FAA61A"/>
</svg>
